<mxfile host="Electron" modified="2023-09-16T01:44:41.055Z" agent="Mozilla/5.0 (X11; Linux x86_64) AppleWebKit/537.36 (KHTML, like Gecko) draw.io/21.3.7 Chrome/112.0.5615.204 Electron/24.5.0 Safari/537.36" etag="BtfSEU4-akqqcIreOjfz" version="21.3.7" type="device">
  <diagram name="第 1 页" id="aNOy_0bnumjarbj2fQwa">
    <mxGraphModel dx="1434" dy="839" grid="1" gridSize="10" guides="1" tooltips="1" connect="1" arrows="1" fold="1" page="1" pageScale="1" pageWidth="1169" pageHeight="826" math="0" shadow="0">
      <root>
        <mxCell id="0" />
        <mxCell id="1" parent="0" />
        <mxCell id="AIhtDNjgpqZSeVCNlgIg-24" value="" style="shape=ext;double=0;rounded=0;whiteSpace=wrap;html=1;dashed=1;dashPattern=8 8;" parent="1" vertex="1">
          <mxGeometry x="355" y="260" width="350" height="530" as="geometry" />
        </mxCell>
        <mxCell id="AIhtDNjgpqZSeVCNlgIg-1" value="&lt;font style=&quot;font-size: 14px;&quot;&gt;Jenkins build server&lt;br&gt;(&#39;Jenkinsfile&#39;, in Groovy lang)&lt;/font&gt;" style="shape=ext;double=1;rounded=0;whiteSpace=wrap;html=1;" parent="1" vertex="1">
          <mxGeometry x="105" y="290" width="200" height="80" as="geometry" />
        </mxCell>
        <mxCell id="AIhtDNjgpqZSeVCNlgIg-2" value="&lt;font style=&quot;font-size: 14px;&quot;&gt;Nginx&lt;br&gt;(reverse proxy)&lt;/font&gt;" style="shape=ext;double=1;rounded=0;whiteSpace=wrap;html=1;" parent="1" vertex="1">
          <mxGeometry x="430" y="290" width="200" height="80" as="geometry" />
        </mxCell>
        <mxCell id="AIhtDNjgpqZSeVCNlgIg-3" value="&lt;font style=&quot;font-size: 14px;&quot;&gt;Actix-web&lt;br&gt;(App server, in Rust lang)&lt;/font&gt;" style="shape=ext;double=1;rounded=0;whiteSpace=wrap;html=1;" parent="1" vertex="1">
          <mxGeometry x="430" y="418" width="200" height="80" as="geometry" />
        </mxCell>
        <mxCell id="AIhtDNjgpqZSeVCNlgIg-4" value="&lt;font style=&quot;font-size: 14px;&quot;&gt;Diesel-ORM&lt;br&gt;(ORM, in Rust lang)&lt;/font&gt;" style="shape=ext;double=1;rounded=0;whiteSpace=wrap;html=1;" parent="1" vertex="1">
          <mxGeometry x="430" y="547" width="200" height="80" as="geometry" />
        </mxCell>
        <mxCell id="AIhtDNjgpqZSeVCNlgIg-8" value="" style="group" parent="1" vertex="1" connectable="0">
          <mxGeometry x="450" y="663" width="175" height="104" as="geometry" />
        </mxCell>
        <mxCell id="AIhtDNjgpqZSeVCNlgIg-6" value="" style="shape=datastore;whiteSpace=wrap;html=1;" parent="AIhtDNjgpqZSeVCNlgIg-8" vertex="1">
          <mxGeometry x="50" width="60" height="60" as="geometry" />
        </mxCell>
        <mxCell id="AIhtDNjgpqZSeVCNlgIg-7" value="&lt;font style=&quot;font-size: 14px;&quot;&gt;PostgreSQL, the database&lt;/font&gt;" style="text;html=1;align=center;verticalAlign=middle;resizable=0;points=[];autosize=1;strokeColor=none;fillColor=none;" parent="AIhtDNjgpqZSeVCNlgIg-8" vertex="1">
          <mxGeometry x="-15" y="74" width="190" height="30" as="geometry" />
        </mxCell>
        <mxCell id="AIhtDNjgpqZSeVCNlgIg-10" style="edgeStyle=none;rounded=0;orthogonalLoop=1;jettySize=auto;html=1;exitX=0.5;exitY=0;exitDx=0;exitDy=0;entryX=0.5;entryY=1;entryDx=0;entryDy=0;endArrow=none;endFill=0;" parent="1" source="AIhtDNjgpqZSeVCNlgIg-6" target="AIhtDNjgpqZSeVCNlgIg-4" edge="1">
          <mxGeometry relative="1" as="geometry" />
        </mxCell>
        <mxCell id="AIhtDNjgpqZSeVCNlgIg-12" style="edgeStyle=none;rounded=0;orthogonalLoop=1;jettySize=auto;html=1;exitX=0.5;exitY=1;exitDx=0;exitDy=0;entryX=0.5;entryY=0;entryDx=0;entryDy=0;endArrow=none;endFill=0;" parent="1" source="AIhtDNjgpqZSeVCNlgIg-3" target="AIhtDNjgpqZSeVCNlgIg-4" edge="1">
          <mxGeometry relative="1" as="geometry">
            <mxPoint x="540" y="836" as="sourcePoint" />
            <mxPoint x="540" y="750" as="targetPoint" />
          </mxGeometry>
        </mxCell>
        <mxCell id="AIhtDNjgpqZSeVCNlgIg-13" style="edgeStyle=none;rounded=0;orthogonalLoop=1;jettySize=auto;html=1;exitX=0.5;exitY=1;exitDx=0;exitDy=0;entryX=0.5;entryY=0;entryDx=0;entryDy=0;endArrow=none;endFill=0;" parent="1" source="AIhtDNjgpqZSeVCNlgIg-2" target="AIhtDNjgpqZSeVCNlgIg-3" edge="1">
          <mxGeometry relative="1" as="geometry">
            <mxPoint x="550" y="846" as="sourcePoint" />
            <mxPoint x="550" y="760" as="targetPoint" />
          </mxGeometry>
        </mxCell>
        <mxCell id="AIhtDNjgpqZSeVCNlgIg-14" style="edgeStyle=none;rounded=0;orthogonalLoop=1;jettySize=auto;html=1;exitX=0;exitY=0.5;exitDx=0;exitDy=0;entryX=1;entryY=0.5;entryDx=0;entryDy=0;endArrow=none;endFill=0;startArrow=classic;startFill=1;" parent="1" source="AIhtDNjgpqZSeVCNlgIg-2" target="AIhtDNjgpqZSeVCNlgIg-1" edge="1">
          <mxGeometry relative="1" as="geometry">
            <mxPoint x="560" y="856" as="sourcePoint" />
            <mxPoint x="560" y="770" as="targetPoint" />
          </mxGeometry>
        </mxCell>
        <mxCell id="AIhtDNjgpqZSeVCNlgIg-15" value="&lt;font style=&quot;font-size: 14px;&quot;&gt;JSON&lt;br&gt;(HTTP POST)&lt;/font&gt;" style="text;html=1;align=center;verticalAlign=middle;resizable=0;points=[];autosize=1;strokeColor=none;fillColor=none;" parent="1" vertex="1">
          <mxGeometry x="315" y="285" width="110" height="50" as="geometry" />
        </mxCell>
        <mxCell id="AIhtDNjgpqZSeVCNlgIg-17" value="&lt;font style=&quot;font-size: 14px;&quot;&gt;Download website for human&lt;br&gt;(Angular, in TypeScript lang)&lt;/font&gt;" style="shape=ext;double=1;rounded=0;whiteSpace=wrap;html=1;" parent="1" vertex="1">
          <mxGeometry x="755" y="290" width="200" height="80" as="geometry" />
        </mxCell>
        <mxCell id="AIhtDNjgpqZSeVCNlgIg-18" style="edgeStyle=none;rounded=0;orthogonalLoop=1;jettySize=auto;html=1;exitX=0;exitY=0.5;exitDx=0;exitDy=0;entryX=1;entryY=0.5;entryDx=0;entryDy=0;endArrow=none;endFill=0;startArrow=classic;startFill=1;" parent="1" source="AIhtDNjgpqZSeVCNlgIg-17" target="AIhtDNjgpqZSeVCNlgIg-2" edge="1">
          <mxGeometry relative="1" as="geometry">
            <mxPoint x="440" y="340" as="sourcePoint" />
            <mxPoint x="290" y="340" as="targetPoint" />
          </mxGeometry>
        </mxCell>
        <mxCell id="AIhtDNjgpqZSeVCNlgIg-20" value="&lt;font style=&quot;font-size: 14px;&quot;&gt;Programmatic bots&lt;br&gt;(In any language)&lt;/font&gt;" style="shape=ext;double=1;rounded=0;whiteSpace=wrap;html=1;" parent="1" vertex="1">
          <mxGeometry x="755" y="130" width="200" height="80" as="geometry" />
        </mxCell>
        <mxCell id="AIhtDNjgpqZSeVCNlgIg-21" style="edgeStyle=none;rounded=0;orthogonalLoop=1;jettySize=auto;html=1;exitX=0;exitY=0.5;exitDx=0;exitDy=0;entryX=1;entryY=0.25;entryDx=0;entryDy=0;endArrow=none;endFill=0;startArrow=classic;startFill=1;" parent="1" source="AIhtDNjgpqZSeVCNlgIg-20" target="AIhtDNjgpqZSeVCNlgIg-2" edge="1">
          <mxGeometry relative="1" as="geometry">
            <mxPoint x="765" y="340" as="sourcePoint" />
            <mxPoint x="640" y="340" as="targetPoint" />
          </mxGeometry>
        </mxCell>
        <mxCell id="AIhtDNjgpqZSeVCNlgIg-22" value="&lt;font style=&quot;font-size: 14px;&quot;&gt;JSON&lt;br&gt;(Restful API)&lt;/font&gt;" style="text;html=1;align=center;verticalAlign=middle;resizable=0;points=[];autosize=1;strokeColor=none;fillColor=none;" parent="1" vertex="1">
          <mxGeometry x="645" y="275" width="100" height="50" as="geometry" />
        </mxCell>
        <mxCell id="AIhtDNjgpqZSeVCNlgIg-25" value="&lt;b&gt;&lt;font style=&quot;font-size: 18px;&quot;&gt;The artifacts-repo restful api backend&lt;/font&gt;&lt;/b&gt;" style="text;html=1;align=center;verticalAlign=middle;resizable=0;points=[];autosize=1;strokeColor=none;fillColor=none;" parent="1" vertex="1">
          <mxGeometry x="370" y="791" width="340" height="40" as="geometry" />
        </mxCell>
      </root>
    </mxGraphModel>
  </diagram>
</mxfile>
